<svg viewBox="0 0 1025 1024" version="1.1" xmlns='http://www.w3.org/2000/svg' xmlns:xlink='http://www.w3.org/1999/xlink'><path d="M1002.184339 476.072561 836.090938 363.194325C806.971392 343.450633 783.147763 356.042437 783.147763 391.257887L783.115763 448.009 564.815175 448.009 564.815175 240.924236 621.566288 240.924236C656.781741 240.924236 669.373542 217.116608 649.62985 187.981063L536.783613 21.855659C517.007922-7.263886 484.624428-7.263886 464.880736 21.855659L352.0345 187.981063C332.258809 217.100608 344.882612 240.924236 380.066062 240.924236L436.817175 240.924236 436.817175 448.009 240.948236 448.009 240.948236 391.257887C240.948236 356.074437 217.140608 343.450634 188.005063 363.226325L21.879659 476.072561C-7.239886 495.816253-7.239886 528.199747 21.879659 547.975438L188.005063 660.821677C217.124608 680.56537 240.948236 667.973562 240.948236 632.758113L240.948236 576.007 436.849175 576.007 436.849175 783.123763 380.098062 783.123763C344.882612 783.091763 332.290809 806.931392 352.0345 836.066938L464.880737 1002.160339C484.656428 1031.279885 517.039922 1031.279885 536.783614 1002.160339L649.62985 836.066938C669.373542 806.947392 656.781741 783.123763 621.598288 783.123763L564.815175 783.091763 564.815175 576.007 783.147763 576.007 783.147763 632.758113C783.115763 667.973562 806.955392 680.565363 836.090938 660.821677L1002.184339 547.975438C1031.303885 528.199747 1031.303885 495.816253 1002.184339 476.072561L1002.184339 476.072561Z" fill="#fff"></path></svg>
